<?xml version="1.0" encoding="UTF-8"?>
<svg width="50px" height="36px" viewBox="0 0 50 36" version="1.1" xmlns="http://www.w3.org/2000/svg" xmlns:xlink="http://www.w3.org/1999/xlink">
    <!-- Generator: Sketch 44.1 (41455) - http://www.bohemiancoding.com/sketch -->
    <title>laptop</title>
    <desc>Created with Sketch.</desc>
    <defs></defs>
    <g id="Page-1" stroke="none" stroke-width="1" fill="none" fill-rule="evenodd">
        <g id="Artboard" transform="translate(-20.000000, -320.000000)" fill-rule="nonzero" fill="#FFFFFF">
            <g id="Experience" transform="translate(0.000000, 277.000000)">
                <g id="Experience-1" transform="translate(0.000000, 1.000000)">
                    <g id="laptop" transform="translate(20.000000, 42.000000)">
                        <path d="M49.625,30.7005556 C49.577551,30.6405556 49.5076531,30.605 49.4341837,30.605 L0.252040816,30.605 C0.178571429,30.605 0.109183673,30.64 0.0612244898,30.7005556 C0.0132653061,30.7605556 -0.00816326531,30.8411111 0.00255102041,30.9205556 C0.00969387755,30.9705556 0.751530612,35.9294444 6.50918367,35.9294444 L43.1770408,35.9294444 C48.9341837,35.9294444 49.6760204,30.9705556 49.6836735,30.9205556 C49.6938776,30.8411111 49.672449,30.7605556 49.625,30.7005556 Z M28.5418367,34.1927778 L21.1438776,34.1927778 L21.1438776,32.3405556 L28.5418367,32.3405556 L28.5418367,34.1927778 Z" id="Shape"></path>
                        <path d="M5.36071429,28.6772222 L44.325,28.6772222 C44.8882653,28.6772222 45.3454082,28.1794444 45.3454082,27.5661111 L45.3454082,1.50722222 C45.3454082,0.893888889 44.8882653,0.396111111 44.325,0.396111111 L5.36071429,0.396111111 C4.79744898,0.396111111 4.34030612,0.893888889 4.34030612,1.50722222 L4.34030612,27.5661111 C4.34030612,28.1794444 4.79744898,28.6772222 5.36071429,28.6772222 Z M7.91173469,4.285 L41.7739796,4.285 L41.7739796,24.7883333 L7.91173469,24.7883333 L7.91173469,4.285 Z" id="Shape"></path>
                    </g>
                </g>
            </g>
        </g>
    </g>
</svg>