<?xml version="1.0" encoding="UTF-8"?>
<svg width="58px" height="55px" viewBox="0 0 58 55" version="1.1" xmlns="http://www.w3.org/2000/svg" xmlns:xlink="http://www.w3.org/1999/xlink">
    <!-- Generator: Sketch 44.1 (41455) - http://www.bohemiancoding.com/sketch -->
    <title>favourite-31-glyph-16</title>
    <desc>Created with Sketch.</desc>
    <defs></defs>
    <g id="Page-1" stroke="none" stroke-width="1" fill="none" fill-rule="evenodd">
        <g id="Artboard" transform="translate(-157.000000, -538.000000)" fill-rule="nonzero" fill="#F20074">
            <g id="Skills" transform="translate(0.000000, 514.000000)">
                <g id="JS" transform="translate(1.000000, 0.000000)">
                    <g id="Stars-1" transform="translate(156.000000, 24.000000)">
                        <g id="favourite-31-glyph-16">
                            <path d="M54.8257483,18.1810347 L39.2011581,15.923818 L32.2106383,1.84411366 C30.9870258,-0.614704553 26.9396922,-0.614704553 25.7160797,1.84411366 L18.72918,15.923818 L3.10096963,18.1810347 C0.14330276,18.6094378 -1.05496864,22.2382647 1.0954036,24.3262802 L12.4047687,35.2847614 L9.73671427,50.761276 C9.23351268,53.6916977 12.3323656,55.9417144 14.9895596,54.5557041 L28.963359,47.25125 L42.9407785,54.5593041 C45.5762516,55.9309143 48.7004456,53.7168979 48.1936239,50.764876 L45.5255694,35.2883614 L56.8349345,24.3298802 C58.9816866,22.2382647 57.7834152,18.6094378 54.8257483,18.1810347 Z" id="Shape"></path>
                        </g>
                    </g>
                </g>
            </g>
        </g>
    </g>
</svg>