<?xml version="1.0" encoding="UTF-8"?>
<svg width="58px" height="56px" viewBox="0 0 58 56" version="1.1" xmlns="http://www.w3.org/2000/svg" xmlns:xlink="http://www.w3.org/1999/xlink">
    <!-- Generator: Sketch 44.1 (41455) - http://www.bohemiancoding.com/sketch -->
    <title>favourite-31-glyph-16</title>
    <desc>Created with Sketch.</desc>
    <defs></defs>
    <g id="Page-1" stroke="none" stroke-width="1" fill="none" fill-rule="evenodd">
        <g id="Artboard" transform="translate(-157.000000, -980.000000)" fill-rule="nonzero" fill="#FB3400">
            <g id="Skills" transform="translate(0.000000, 514.000000)">
                <g id="Webpack/Gulp" transform="translate(0.000000, 441.000000)">
                    <g id="Stars-5" transform="translate(157.000000, 25.000000)">
                        <g id="favourite-31-glyph-16">
                            <path d="M54.6738765,18.2266012 L39.0925677,15.9637273 L32.1214121,1.8487355 C30.9011892,-0.616245166 26.865067,-0.616245166 25.644844,1.8487355 L18.6772986,15.9637273 L3.09237969,18.2266012 C0.1429058,18.656078 -1.05204629,22.2939997 1.09236924,24.3872483 L12.3704065,35.3731944 L9.70974276,50.8884973 C9.20793508,53.8262634 12.2982039,56.0819192 14.9480373,54.6924352 L28.8831281,47.3696742 L42.821829,54.6960443 C45.4500016,56.071092 48.5655413,53.8515267 48.0601235,50.8921063 L45.3994598,35.3768034 L56.677497,24.3908574 C58.8183024,22.2939997 57.6233504,18.656078 54.6738765,18.2266012 Z" id="Shape"></path>
                        </g>
                    </g>
                </g>
            </g>
        </g>
    </g>
</svg>