<?xml version="1.0" encoding="UTF-8"?>
<svg width="50px" height="43px" viewBox="0 0 50 43" version="1.1" xmlns="http://www.w3.org/2000/svg" xmlns:xlink="http://www.w3.org/1999/xlink">
    <!-- Generator: Sketch 44.1 (41455) - http://www.bohemiancoding.com/sketch -->
    <title>books-stack</title>
    <desc>Created with Sketch.</desc>
    <defs></defs>
    <g id="Page-1" stroke="none" stroke-width="1" fill="none" fill-rule="evenodd">
        <g id="Artboard" transform="translate(-703.000000, -314.000000)" fill-rule="nonzero" fill="#FFFFFF">
            <g id="Experience" transform="translate(0.000000, 277.000000)">
                <g id="Experience-3" transform="translate(682.000000, 1.000000)">
                    <g id="books-stack" transform="translate(21.000000, 36.000000)">
                        <path d="M0,37.1601131 C0,40.2940327 2.54949749,42.8434673 5.68335427,42.8434673 L6.9464196,42.8434673 L41.6247487,42.8434673 L44.1505653,42.8434673 L46.7821608,42.8434673 L46.7821608,40.3175879 L44.1505653,40.3175879 L44.1505653,34.0026382 L46.7821608,34.0026382 L46.7821608,32.8974874 L48.0449749,32.8974874 L49.9394472,32.8974874 L49.9394472,30.371608 L48.0449749,30.371608 L48.0449749,24.057098 L49.9394472,24.057098 L49.9394472,21.5312814 L48.0449749,21.5312814 L47.8871231,21.5312814 L47.8871231,20.6898869 L47.8871231,19.4268844 L47.8871231,19.3726759 L44.768593,13.5314698 L48.0450377,13.5314698 L48.0450377,10.1349246 L39.8030779,0.0608040201 L10.7247487,0.0608040201 L3.2258794,11.8765704 C1.94340452,12.9200377 1.10527638,14.491206 1.10527638,16.2694724 C1.10527638,19.3838568 3.625,21.9158291 6.73297739,21.9467965 C4.64183417,22.7867462 3.15747487,24.8266332 3.15747487,27.2146357 C3.15747487,28.9485553 3.9544598,30.4838568 5.18272613,31.5271985 C2.28611809,31.7853015 0,34.1976131 0,37.1601131 Z M3.63103015,16.2694724 C3.63103015,15.0917085 4.28611809,14.0743719 5.24447236,13.5316583 L42.8875628,13.5316583 L42.8875628,19.4270101 L6.78856784,19.4270101 C5.04767588,19.4268844 3.63103015,18.0100503 3.63103015,16.2694724 Z M8.84089196,24.0572236 L10.1038317,24.0572236 L45.5189698,24.0572236 L45.5189698,30.3716709 L10.1038317,30.3716709 L8.84089196,30.3716709 C7.1,30.3716709 5.68335427,28.9557789 5.68335427,27.2146357 C5.68341709,25.4729899 7.1,24.0572236 8.84089196,24.0572236 Z M5.68341709,34.0026382 L6.94648241,34.0026382 L41.6248116,34.0026382 L41.6248116,40.3175251 L6.9464196,40.3175251 L5.68335427,40.3175251 C3.94258794,40.3175251 2.52600503,38.9016332 2.52600503,37.1600503 C2.52600503,35.4184673 3.94265075,34.0026382 5.68341709,34.0026382 Z" id="Shape"></path>
                    </g>
                </g>
            </g>
        </g>
    </g>
</svg>